# xmcd
#
# Track frame offsets: 
#        150
#        23497
#        46065
#        59962
#        83197
#        103347
#        120442
#        142857
#        160722
#        179842
#        201172
#        223145
#        244452
#        261085
#        289785
#        306027
#
# Disc length: 4237 seconds
#
# Revision: 11
# Processed by: cddbd v1.5.2PL0 Copyright (c) Steve Scherf et al.
# Submitted via: ExactAudioCopy v1.0b3
#
DISCID=ee108b10
DTITLE=順子 - 昨日。唯一。更多 
DYEAR=2001
DGENRE=CPop
TTITLE0=The Greatest Love Of All
TTITLE1=寫一首歌 (April 5, 1969)
TTITLE2=Open Up
TTITLE3=星星 (I Am Not A Star)
TTITLE4=不想一個人 (Nights Alone Cryin')
TTITLE5=Inspiration
TTITLE6=回家 (Coming Home)
TTITLE7=Don't Cry Out Loud
TTITLE8=If You Leave Me Now
TTITLE9=真的想你 (順子與杜德徫合唱) (Really Miss You)
TTITLE10=永遠等待 (Where Did We Go Wrong?)
TTITLE11=Gypsy女人 (Gypsy Woman)
TTITLE12=Can't Get Enough
TTITLE13=Poem and 搖籃曲 (Poem And Iullaby)
TTITLE14=太陽 (Sun -Live In Concert, 1998 Taipei)
TTITLE15=Always Sisters
EXTD=YEAR: 2001
EXTT0=
EXTT1=
EXTT2=
EXTT3=
EXTT4=
EXTT5=
EXTT6=
EXTT7=
EXTT8=
EXTT9=
EXTT10=
EXTT11=
EXTT12=
EXTT13=
EXTT14=
EXTT15=
PLAYORDER=
